# xmcd CD database file generated by Grip 3.2.0
# 
# Track frame offsets:
#       150
#       7662
#       13836
# 
# Disc length: 327 seconds
# 
# Revision: 1
# Processed by: cddbd v1.5.1PL0 Copyright (c) Steve Scherf et al.
# Submitted via: Grip 3.2.0
# 
DISCID=12014503
DTITLE=Democracy (single) - Sir Eric Beyond
DYEAR=2005
DGENRE=Alternative
TTITLE0=Democracy
TTITLE1=Seabiscuit
TTITLE2=Neon Lights (w. Anna-Maria Espinosa)
EXTD=we
EXTT0=
EXTT1=
EXTT2=
PLAYORDER=
